# xmcd
#
# Track frame offsets: 
#        150
#        12655
#        25366
#        37894
#        50534
#        59762
#        71369
#        82871
#        93766
#        108703
#        118613
#        128457
#        139023
#        150341
#        159398
#        168996
#        178730
#        191738
#        204861
#        217007
#        228899
#        240971
#
# Disc length: 3314 seconds
#
# Revision: 1
# Processed by: cddbd v1.5.2PL0 Copyright (c) Steve Scherf et al.
# Submitted via: ExactAudioCopy v0.99pb5
#
DISCID=1c0cf016
DTITLE=Professor Longhair - Tipitina [CD2]
DYEAR=2008
DGENRE=Blues
TTITLE0=East St. Louis Baby (Wasco 201)
TTITLE1=Boyd's Bounce (Wasco 201)
TTITLE2=K.C. Blues (Federat 12061)
TTITLE3=Curley Haired Baby (Federat 12061)
TTITLE4=Rockin' With Fess (Federat 12073)
TTITLE5=Gone So Long (Federat 12073)
TTITLE6=In The Night (Atlantic 1020)
TTITLE7=Tipitina (Atlantic 1020)
TTITLE8=Ball The Wall (Atlantic)
TTITLE9=Who's Been Foolin' You (Atlantic)
TTITLE10=No Buts - No Maybes (Ebb 101)
TTITLE11=Cry Pretty Baby (Ebb 101)
TTITLE12=Look What You're Doin' To Me (Ebb 106)
TTITLE13=Misery (Ebb 106)
TTITLE14=Looka No Hair (Ebb 121)
TTITLE15=Baby Let Me Hold Your Hand (Ebb 121)
TTITLE16=Her Mind Is Gone (Mercury)
TTITLE17=Hadacol Bounce (Mercury)
TTITLE18=Longhaur Stomp (Mercury)
TTITLE19=Between The Night And Day (Mercury)
TTITLE20=Tipitina (Atlantic)
TTITLE21=Baby Let Me Hold Your Hand (Ebb)
EXTD=YEAR: 2008
EXTT0=
EXTT1=
EXTT2=
EXTT3=
EXTT4=
EXTT5=
EXTT6=
EXTT7=
EXTT8=
EXTT9=
EXTT10=
EXTT11=
EXTT12=
EXTT13=
EXTT14=
EXTT15=
EXTT16=
EXTT17=
EXTT18=
EXTT19=
EXTT20=
EXTT21=
PLAYORDER=
